<?xml version="1.0" encoding="UTF-8" standalone="no"?>
<!-- Generator: Adobe Illustrator 19.0.0, SVG Export Plug-In . SVG Version: 6.00 Build 0)  -->

<svg
   xmlns:dc="http://purl.org/dc/elements/1.1/"
   xmlns:cc="http://creativecommons.org/ns#"
   xmlns:rdf="http://www.w3.org/1999/02/22-rdf-syntax-ns#"
   xmlns:svg="http://www.w3.org/2000/svg"
   xmlns="http://www.w3.org/2000/svg"
   xmlns:sodipodi="http://sodipodi.sourceforge.net/DTD/sodipodi-0.dtd"
   xmlns:inkscape="http://www.inkscape.org/namespaces/inkscape"
   version="1.1"
   id="Capa_1"
   x="0px"
   y="0px"
   viewBox="0 0 512 512"
   style="enable-background:new 0 0 512 512;"
   xml:space="preserve"
   sodipodi:docname="battle-of-langs.svg"
   inkscape:version="0.92.1 r15371"><metadata
     id="metadata73"><rdf:RDF><cc:Work
         rdf:about=""><dc:format>image/svg+xml</dc:format><dc:type
           rdf:resource="http://purl.org/dc/dcmitype/StillImage" /><dc:title /></cc:Work></rdf:RDF></metadata><defs
     id="defs71" /><sodipodi:namedview
     pagecolor="#ffffff"
     bordercolor="#666666"
     borderopacity="1"
     objecttolerance="10"
     gridtolerance="10"
     guidetolerance="10"
     inkscape:pageopacity="0"
     inkscape:pageshadow="2"
     inkscape:window-width="1920"
     inkscape:window-height="1023"
     id="namedview69"
     showgrid="false"
     inkscape:zoom="0.4609375"
     inkscape:cx="-126.91525"
     inkscape:cy="390.08306"
     inkscape:window-x="0"
     inkscape:window-y="25"
     inkscape:window-maximized="1"
     inkscape:current-layer="Capa_1" /><g
     id="g38" /><g
     id="g40" /><g
     id="g42" /><g
     id="g44" /><g
     id="g46" /><g
     id="g48" /><g
     id="g50" /><g
     id="g52" /><g
     id="g54" /><g
     id="g56" /><g
     id="g58" /><g
     id="g60" /><g
     id="g62" /><g
     id="g64" /><g
     id="g66" /><g
     id="g170"><g
       transform="translate(0,15.309303)"
       id="g134"><path
         style="stroke-width:2.77792311"
         inkscape:connector-curvature="0"
         d="m -269.86072,-248.73697 c -26.10137,-49.27202 -88.60742,-63.15886 -132.78195,-32.1239 -0.0861,0.0583 -0.16946,0.11945 -0.25557,0.18056 l -102.1748,74.11221 c -2.22511,-31.30164 -14.48964,-60.63373 -34.5518,-84.04051 73.33717,-30.04324 124.11483,-104.18601 119.06456,-189.28768 -5.76697,-97.16898 -84.88222,-175.35918 -182.10675,-180.05943 -110.11132,-5.31972 -201.39388,82.72655 -201.39388,191.69615 0,48.17196 17.87871,92.21871 47.29692,125.95381 -41.25771,24.7763 -76.38733,58.7503 -102.58315,99.54688 -32.33225,50.35819 -49.42758,108.74736 -49.44147,168.861617 v 88.390738 c 0,32.873944 6.37533,64.897842 18.9371,95.154985 9.6005,23.21232 22.47895,44.56344 38.40479,63.71722 7.90041,9.5005 22.22894,10.2422 30.96551,1.50286 7.60873,-7.60873 8.24765,-19.78715 1.36118,-28.05425 -13.30903,-15.97306 -24.06793,-33.79066 -32.08779,-53.18056 -10.45055,-25.173541 -15.75083,-51.799934 -15.75083,-79.140255 v -88.385182 c 0.0111,-52.086063 14.81467,-102.666483 42.81058,-146.268773 24.34294,-37.91031 57.57246,-69.03139 96.71339,-90.80475 26.51528,76.41511 99.11353,128.78452 180.96503,128.92619 l 0.33613,107.880652 -63.70056,0.02222 -44.14397,-115.247692 c -8.36155,-21.82615 -24.19294,-40.28545 -45.14403,-50.64154 -23.75125,-11.74229 -50.74988,-12.63678 -75.18727,-2.52791 -20.3094,8.40321 -37.04361,24.08181 -46.72189,43.8134 -11.25893,22.94842 -12.41176,48.897 -3.32518,72.62325 l 67.17019,175.367507 c 11.25614,29.373759 36.38523,50.54709 67.22852,56.641853 5.78363,1.14451 11.7145,1.72232 17.63147,1.72232 h 0.025 l 210.98604,-0.0695 118.75066,118.75066 c 17.84816,17.85093 17.84538,46.91079 0,64.77284 l -87.83515,87.81848 -64.86729,-64.86728 40.35767,-40.15766 c 2.06955,-2.06122 3.83631,-4.44746 4.93637,-7.15593 3.30573,-8.13098 1.26396,-17.00367 -4.54468,-22.81231 L -562.41493,135.99706 c -7.12259,-7.17538 -16.08417,-11.75617 -22.24005,-14.29242 -8.75046,-3.66408 -17.95094,-5.68085 -25.90413,-5.68085 -19.38991,0 -36.63525,12.02841 -43.27171,30.42937 -6.15032,17.05645 -1.14451,36.17134 11.67839,48.99423 l 30.85161,30.85162 c 17.85094,17.85093 17.84538,46.91079 0.0278,64.74505 l -88.66297,88.32407 -64.70339,-64.70339 40.99937,-40.79658 c 2.06955,-2.06121 3.83631,-4.44745 4.93637,-7.15593 3.30573,-8.13098 1.26395,-17.00366 -4.54469,-22.8123 l -30.59882,-30.60994 c -8.16709,-8.16709 -21.40945,-8.16709 -29.57655,0 -8.16709,8.1671 -8.16709,21.40946 0,29.57655 l 15.78416,15.78416 -150.40232,149.65506 c -8.13653,8.09764 -8.22543,21.23722 -0.20278,29.44876 l 150.9079,153.03579 c 3.91131,3.96688 9.2477,6.21422 14.81744,6.23088 h 0.0722 c 5.54752,0 10.86724,-2.20289 14.78689,-6.12532 l 9.20326,-9.20326 c 19.77048,-19.77325 31.54609,-46.49965 31.32108,-74.46223 -0.15556,-19.85659 -5.94475,-38.82148 -16.61198,-55.05844 l 132.03469,-131.52355 c 34.14623,-34.18234 34.14068,-89.77414 -0.008,-123.92315 l -31.75722,-31.76 c -0.48891,-0.48891 -1.9751,-1.9751 -0.90838,-4.54468 1.06117,-2.56402 3.14739,-2.56402 3.83353,-2.56402 1.81399,0 5.45584,0.63892 9.85607,2.4779 4.37523,1.8001 7.36706,3.89187 8.65601,5.18916 l 93.1271,93.1271 -150.39676,149.65784 c -8.13654,8.09764 -8.22543,21.23722 -0.20279,29.44876 l 150.9079,153.03579 c 3.91132,3.96687 9.24771,6.21421 14.81744,6.23088 h 0.0722 c 5.54751,0 10.86723,-2.20289 14.78688,-6.12532 l 10.61167,-10.61444 c 34.57403,-34.60459 39.0826,-88.23796 13.45348,-127.77892 l 131.88191,-131.8569 c 34.14623,-34.18234 34.14067,-89.77414 -0.008,-123.92315 l -95.20498,-95.20499 c 33.56287,-12.931229 57.86692,-45.305146 58.56973,-83.123792 0.4528,-24.1290413 -8.78379,-47.080243 -26.00414,-64.617272 -6.27533,-6.392001 -13.43403,-11.78395 -21.16777,-16.092509 l 98.70794,-69.878657 c 22.80397,-16.03695 36.8686,-41.18271 38.49368,-69.60642 0.93061,-16.25363 -2.65013,-32.56004 -10.26442,-46.93857 z m -486.73937,684.55528 c -3.93632,3.91965 -6.1531,9.24493 -6.15588,14.80077 -0.003,5.55863 2.20289,10.88391 6.13365,14.81189 11.39227,11.38393 17.66204,26.52083 17.66204,42.62723 0,14.06741 -4.78914,27.40699 -13.59516,38.152 l -121.28968,-122.87866 79.55694,-79.16525 64.72006,64.72005 z m 268.95574,0.30557 c -8.14209,8.14209 -8.17265,21.33723 -0.0667,29.51543 21.84559,22.04005 23.12344,56.99466 3.88632,80.56256 l -121.28691,-122.87033 80.19865,-79.80417 64.93673,64.93673 z m -269.3391,-865.11473 c -3.40017,-12.52566 -5.24749,-25.68468 -5.24749,-39.27428 0,-82.75989 67.3313,-150.09119 150.09397,-150.09119 49.8026,0 93.99381,24.40128 121.30912,61.85324 -22.0067,19.14822 -96.18003,37.17694 -155.83315,18.9121 -9.97063,-3.16874 -21.71673,-5.85629 -30.10991,-0.13056 -24.8288,41.98205 -38.85619,89.69703 -80.21254,108.73069 z m 90.53252,144.77424 c 17.23424,5.09471 35.45186,7.87542 54.31396,7.87542 8.59489,0 17.04256,-0.62504 25.34021,-1.72509 17.85927,13.77294 30.5266,32.78505 36.46024,54.11672 -46.68577,-1.30563 -89.17133,-24.26516 -116.11441,-60.26705 z m 54.31396,-33.95177 c -54.33063,0 -102.0109,-29.01819 -128.3595,-72.36768 44.58011,-19.35935 78.14576,-57.50023 91.62424,-104.29991 33.92122,8.28655 75.6873,8.65601 113.99486,0.7806 17.68981,-3.63352 43.94119,-11.01169 63.95334,-25.03742 5.73364,15.88416 8.87547,32.99617 8.87547,50.82766 0.006,82.76544 -67.32575,150.09675 -150.08841,150.09675 z m 220.69211,335.781463 c -0.49448,26.515277 -22.48174,48.088629 -49.01646,48.094185 l -231.85658,0.07778 h -0.0139 c -3.19461,0 -6.40034,-0.311127 -9.51994,-0.927826 -16.64254,-3.286283 -30.20436,-14.714659 -36.27413,-30.568267 l -67.17018,-175.367515 c -4.68358,-12.23397 -4.328,-25.55689 1.00839,-37.51863 5.33639,-11.96451 15.01189,-21.13166 27.24587,-25.81802 5.69752,-2.18344 11.63394,-3.26961 17.55647,-3.26961 6.79203,0 13.57294,1.43063 19.96216,4.28078 11.96174,5.33639 21.13166,15.01189 25.81524,27.24587 l 49.95817,130.423492 c 3.09738,8.09209 10.86724,13.434036 19.53158,13.434036 h 0.006 l 178.4399,-0.06111 v 0.0028 c 0.0111,0 0.025,-0.0028 0.0361,-0.0028 h 3.66964 0.0139 c 13.60905,0 26.9403,5.63085 36.57691,15.442475 9.2866,9.4588284 14.26742,21.7233594 14.0313,34.532363 z m 69.24251,-183.990183 -130.22349,92.185377 -51.88049,0.01667 -0.25279,-81.095917 126.07882,-91.45201 c 22.12894,-15.45358 52.7111,-10.09497 68.23691,11.98674 15.55637,22.11783 10.21164,52.76388 -11.95896,68.35914 z"
         id="path20"
         sodipodi:nodetypes="cccccccscccscccccscccccccccccccsccccccccsccscsscccccccsscccccsccccccccscccccccsccccsccccccccscscccccccccccccsscccccscccscccccscccscccccscccscccscsccccccccc" /><text
         xml:space="preserve"
         style="font-style:normal;font-weight:normal;font-size:40px;line-height:1.25;font-family:sans-serif;letter-spacing:0px;word-spacing:0px;fill:#000000;fill-opacity:1;stroke:none;stroke-width:1"
         x="203.93225"
         y="-420.88135"
         id="text121"><tspan
           sodipodi:role="line"
           id="tspan119"
           x="203.93225"
           y="-385.49072"
           style="font-size:95.99999237px;stroke-width:1" /></text>
</g><g
       transform="matrix(0.62063842,0,0,0.62063842,-689.86686,-485.76686)"
       id="#000000ff"><path
         style="opacity:1;fill:#000000"
         inkscape:connector-curvature="0"
         d="m 277.47,77.82 c 0,-13.03 -0.01,-26.05 0.01,-39.08 2.75,-0.01 5.51,-0.01 8.27,-0.01 0.04,12.3 0,24.6 0.02,36.9 6.18,-1.64 12.34,-3.32 18.52,-4.96 0.01,6.86 0.01,13.72 0,20.59 -6.17,1.67 -12.36,3.31 -18.52,4.99 0,16.77 -0.01,33.55 0,50.32 6.18,-1.64 12.34,-3.32 18.52,-4.96 0.01,6.86 0,13.72 0,20.58 -6.17,1.68 -12.35,3.31 -18.52,4.99 -0.02,12.14 0,24.28 -0.01,36.42 -2.76,0 -5.53,0 -8.29,-0.01 -0.01,-11.44 0.01,-22.89 0,-34.33 -12.32,3.31 -24.63,6.62 -36.94,9.96 -0.01,13.04 0.01,26.07 -0.01,39.11 -2.78,0 -5.56,0 -8.34,0 -0.02,-12.3 0.01,-24.61 -0.01,-36.91 -6.16,1.64 -12.3,3.32 -18.46,4.95 -0.01,-6.9 -0.01,-13.8 0,-20.7 6.15,-1.68 12.31,-3.3 18.46,-4.98 0,-16.73 0.02,-33.47 0,-50.2 -6.16,1.63 -12.3,3.31 -18.46,4.95 -0.01,-6.87 -0.01,-13.73 0,-20.59 6.15,-1.68 12.31,-3.3 18.46,-4.98 0.01,-12.15 0,-24.31 0.01,-36.47 2.78,0 5.56,0 8.35,0.01 0.01,11.45 -0.01,22.91 0,34.37 12.32,-3.31 24.63,-6.62 36.94,-9.96 m -36.93,30.57 c -0.02,16.74 -0.01,33.48 -0.01,50.22 12.32,-3.32 24.63,-6.64 36.94,-9.96 0,-16.74 0.01,-33.47 -0.01,-50.21 -12.31,3.3 -24.61,6.64 -36.92,9.95 z"
         id="path118" /><path
         style="opacity:1;fill:#000000"
         inkscape:connector-curvature="0"
         d="m 90.61,48.54 c 14.64,-7.16 31.43,-9.11 47.52,-7.33 15.29,1.72 30.23,8.48 40.71,19.9 7.61,8.14 12.59,18.38 15.74,28.99 -7.32,1.74 -14.64,3.48 -21.97,5.2 C 168.74,82.86 161.36,70.65 149.35,64.66 136,58.08 119.97,58.65 106.05,63.12 90.65,68.18 79.9,82.13 75.18,97.19 c -5.42,17.27 -5.25,35.9 -2.15,53.59 2.48,14.26 9.52,28.14 21.54,36.63 13.16,9.65 30.88,11.34 46.39,7.41 11.88,-3.02 21.86,-11.61 27.4,-22.45 3.16,-5.87 5.21,-12.27 6.79,-18.73 7.44,1.9 14.9,3.74 22.33,5.7 -4.13,15.71 -11.67,31.2 -24.58,41.53 -13.32,10.95 -30.88,15.64 -47.94,15.1 C 105.79,215.78 85.45,210.46 71.9,196.13 58.31,181.41 50.73,161.83 48.46,142.09 46.58,123.56 47.65,104.27 54.77,86.88 61.48,70.28 74.54,56.4 90.61,48.54 Z"
         id="path120" /></g></g><g
     id="g161"><g
       transform="matrix(2.7779232,0,0,2.7779232,-842.96,-727.42082)"
       id="g6"><g
         id="g4"><path
           id="path2"
           d="m 509.782,414.35 -54.14,-53.874 24.589,-24.589 c 8.358,-8.359 14.886,-18.131 19.397,-29.038 4.525,-10.902 6.82,-22.429 6.82,-34.263 v -31.821 c -0.005,-21.639 -6.16,-42.658 -17.798,-60.785 -9.429,-14.686 -22.076,-26.917 -36.928,-35.835 10.59,-12.145 17.026,-28 17.026,-45.341 0,-38.096 -30.993,-69.089 -69.089,-69.089 -38.096,0 -69.089,30.993 -69.089,69.089 0,28.862 17.796,53.633 42.986,63.952 -7.222,8.426 -11.636,18.985 -12.438,30.253 L 324.336,166.33 c -0.031,-0.022 -0.061,-0.044 -0.092,-0.065 -14.761,-10.371 -35.206,-6.807 -45.58,7.943 -10.375,14.753 -6.813,35.197 7.922,45.56 l 35.552,25.169 c -2.785,1.551 -5.362,3.492 -7.62,5.793 -6.199,6.314 -9.523,14.575 -9.361,23.261 0.254,13.614 9.002,25.268 21.084,29.923 l -34.272,34.272 c -12.293,12.293 -12.295,32.305 0,44.613 l 47.472,47.463 c -9.226,14.236 -7.603,33.542 4.845,46 l 3.818,3.819 c 1.418,1.418 3.348,2.171 5.35,2.205 2.006,-0.007 3.926,-0.814 5.334,-2.243 l 54.324,-55.09 c 2.888,-2.954 2.856,-7.685 -0.073,-10.601 l -54.14,-53.874 33.543,-33.543 c 0.444,-0.447 1.522,-1.2 3.135,-1.865 1.546,-0.648 2.856,-0.876 3.509,-0.876 0.247,0 0.998,0 1.38,0.923 0.383,0.926 -0.152,1.461 -0.327,1.636 l -11.433,11.433 c -12.293,12.293 -12.295,32.305 0.01,44.623 l 47.516,47.333 c -3.893,5.927 -5.981,12.862 -5.981,20.119 0,9.821 3.826,19.055 10.771,26.001 l 3.818,3.819 c 1.412,1.412 3.327,2.205 5.324,2.205 0.009,0 0.018,0 0.026,0 2.006,-0.007 3.926,-0.814 5.334,-2.243 l 54.324,-55.09 c 2.896,-2.957 2.863,-7.688 -0.066,-10.603 z M 399.662,44.771 c 29.793,0 54.031,24.238 54.031,54.031 0,4.892 -0.666,9.629 -1.889,14.138 -13.789,-6.023 -23.627,-18.767 -25.758,-34.029 -0.288,-2.062 -1.416,-3.912 -3.117,-5.112 -1.701,-1.2 -3.825,-1.641 -5.862,-1.221 -1.636,0.338 -3.312,0.765 -5.006,1.276 -21.451,6.567 -48.148,0.076 -56.069,-6.817 9.835,-13.482 25.742,-22.266 43.67,-22.266 z m -54.03,54.031 c 0,-6.421 1.131,-12.58 3.195,-18.297 7.205,5.049 16.655,7.705 23.022,9.013 13.796,2.835 28.841,2.701 41.036,-0.28 4.854,16.845 16.937,30.575 32.983,37.545 -9.484,15.605 -26.648,26.051 -46.207,26.051 -29.791,-0.001 -54.029,-24.239 -54.029,-54.032 z m 73.582,66.254 c -9.699,12.959 -24.994,21.224 -41.799,21.695 2.136,-7.678 6.697,-14.523 13.125,-19.481 2.987,0.396 6.028,0.62 9.122,0.62 6.79,0.001 13.348,-1 19.552,-2.834 z m -123.942,42.406 c -7.963,-5.601 -9.886,-16.634 -4.286,-24.594 5.589,-7.947 16.597,-9.879 24.563,-4.315 l 45.387,32.921 -0.091,29.193 -18.676,-0.006 z m 72.992,183.57 28.87,28.727 -43.661,44.231 c -6.925,-8.487 -6.465,-21.067 1.399,-29.001 2.918,-2.944 2.907,-7.694 -0.024,-10.624 l -9.959,-9.957 z m 63.004,12.899 -31.904,-31.782 c -6.43,-6.431 -6.431,-16.893 -0.005,-23.318 l 11.106,-11.106 c 4.616,-4.616 6.419,-11.497 4.204,-17.637 -2.389,-6.624 -8.596,-10.954 -15.577,-10.954 -2.863,0 -6.175,0.726 -9.286,2.029 -2.255,0.929 -5.48,2.579 -8.025,5.143 l -38.735,38.736 c -0.743,0.743 -1.376,1.604 -1.769,2.579 -1.181,2.93 -0.439,6.121 1.657,8.206 l 14.656,14.584 -23.351,23.351 -31.616,-31.61 c -6.427,-6.434 -6.428,-16.895 -0.003,-23.32 l 42.748,-42.748 75.951,0.025 c 0.003,0 0.006,0 0.01,0 2.129,0 4.265,-0.209 6.346,-0.62 11.104,-2.194 20.15,-9.817 24.2,-20.391 l 5.373,-14.028 c 1.488,-3.883 -0.455,-8.237 -4.338,-9.723 -3.883,-1.488 -8.237,0.455 -9.724,4.338 l -5.373,14.028 c -2.185,5.707 -7.067,9.821 -13.058,11.004 -1.122,0.222 -2.275,0.334 -3.426,0.334 -0.002,0 -0.003,0 -0.005,0 l -83.464,-0.028 c -9.552,-0.002 -17.467,-7.77 -17.645,-17.314 -0.085,-4.612 1.708,-9.027 5.051,-12.432 3.469,-3.534 8.268,-5.559 13.167,-5.559 0.001,0 0.003,0 0.005,0 h 1.322 c 0.004,0 0.009,0.001 0.013,0.001 h 0.01 v -0.001 l 64.225,0.022 h 0.002 c 3.119,0 5.916,-1.923 7.031,-4.836 l 17.983,-46.95 c 3.446,-8.997 13.502,-13.559 22.52,-10.275 9.278,3.378 13.814,14.121 10.282,23.341 l -5.906,15.418 c -1.488,3.883 0.455,8.237 4.338,9.724 3.883,1.488 8.237,-0.455 9.723,-4.338 l 5.838,-15.241 c 3.151,-8.226 3.179,-17.417 -0.367,-25.48 -4.059,-9.227 -11.975,-15.989 -21.927,-18.556 -5.725,-1.477 -11.793,-1.345 -17.446,0.39 -9.88,3.032 -17.501,10.19 -21.118,19.632 l -16.13,42.112 -22.931,-0.008 0.121,-38.835 c 29.465,-0.051 55.599,-18.902 65.144,-46.411 14.089,7.837 26.052,19.04 34.814,32.688 10.078,15.696 15.407,33.904 15.411,52.652 v 31.819 c 0,9.843 -1.907,19.429 -5.674,28.499 -3.754,9.077 -9.183,17.205 -16.134,24.156 l -29.801,29.8 c -0.743,0.743 -1.376,1.604 -1.769,2.579 -1.181,2.93 -0.439,6.121 1.657,8.206 l 14.887,14.814 z m 18.94,60.061 c -3.17,-3.868 -4.894,-8.669 -4.894,-13.734 0,-5.797 2.259,-11.247 6.358,-15.345 1.415,-1.413 2.209,-3.332 2.207,-5.331 -0.001,-2 -0.798,-3.917 -2.215,-5.328 l -9.732,-9.694 23.298,-23.298 28.639,28.498 z"
           inkscape:connector-curvature="0" /></g></g><g
       transform="matrix(1.2905569,0,0,1.2905569,171.02179,-475.06779)"
       id="g140"><path
         inkscape:connector-curvature="0"
         d="M 5,63 61,7 V 35 L 33,63 61,91 v 28 z"
         style="fill:#378bba"
         id="path134" /><path
         inkscape:connector-curvature="0"
         d="M 41,63 61,43 v 40 z"
         style="fill:#378bba"
         id="path136" /><path
         inkscape:connector-curvature="0"
         d="M 123,63 65,7 V 35 L 93,63 65,91 v 28 z"
         style="fill:#30b9db"
         id="path138" /></g></g></svg>